<?xml version="1.0" standalone="no"?>
<!DOCTYPE svg PUBLIC "-//W3C//DTD SVG 20010904//EN"
 "http://www.w3.org/TR/2001/REC-SVG-20010904/DTD/svg10.dtd">
<svg version="1.0" xmlns="http://www.w3.org/2000/svg"
 width="1280.000000pt" height="896.000000pt" viewBox="0 0 1280.000000 896.000000"
 preserveAspectRatio="xMidYMid meet">
<metadata>
Created by potrace 1.15, written by Peter Selinger 2001-2017
</metadata>
<g transform="translate(0.000000,896.000000) scale(0.100000,-0.100000)"
fill="#000000" stroke="none">
<path d="M925 8949 c-151 -22 -322 -89 -458 -180 -80 -54 -222 -196 -276 -276
-326 -486 -220 -1128 244 -1476 323 -242 765 -283 1123 -103 282 142 487 395
569 703 23 87 26 117 26 263 0 146 -3 177 -26 265 -31 119 -115 292 -186 386
-235 310 -632 473 -1016 418z"/>
<path d="M1880 6729 c-49 -20 -60 -38 -60 -102 0 -117 59 -262 173 -422 134
-189 168 -220 352 -321 99 -54 180 -127 191 -171 9 -38 104 -223 157 -304 102
-159 128 -189 199 -225 65 -33 109 -31 151 6 37 32 168 78 247 87 34 4 54 14
83 41 20 20 37 44 37 53 0 30 24 37 140 37 163 1 335 -43 705 -180 214 -79
330 -134 393 -185 55 -45 172 -95 292 -126 128 -34 295 -54 598 -72 235 -14
259 -18 334 -45 45 -17 95 -30 112 -30 24 0 288 -123 386 -180 8 -4 71 -38
140 -75 196 -105 250 -138 250 -153 0 -7 -39 -31 -86 -53 -154 -73 -320 -198
-356 -269 -13 -25 -26 -46 -30 -48 -5 -2 -8 -12 -8 -22 0 -10 -4 -22 -10 -25
-5 -3 -10 -15 -10 -25 0 -11 -9 -35 -20 -55 -11 -19 -27 -65 -36 -101 -11 -42
-35 -93 -65 -140 -27 -41 -49 -77 -49 -80 0 -3 -8 -18 -19 -32 -10 -15 -36
-58 -56 -97 -51 -94 -51 -95 -101 -95 -100 0 -357 34 -464 61 -162 41 -307 37
-471 -11 -117 -35 -182 -132 -159 -236 20 -90 51 -125 185 -210 148 -94 189
-114 282 -134 154 -33 295 -39 695 -31 l377 8 58 35 c49 31 61 44 79 90 24 59
13 54 204 98 52 12 118 33 146 45 60 27 171 128 216 196 36 56 56 61 118 29
l40 -20 0 -70 c0 -66 3 -80 37 -158 19 -45 78 -101 127 -122 48 -22 230 -42
336 -38 51 2 94 -3 135 -16 42 -12 97 -18 181 -20 75 -1 127 -6 135 -13 8 -6
50 -21 93 -33 44 -11 87 -25 97 -30 10 -6 50 -17 90 -25 40 -9 86 -24 103 -34
17 -10 51 -21 76 -25 24 -4 64 -16 88 -26 26 -12 67 -20 96 -20 29 0 78 -7
109 -15 32 -8 94 -19 140 -25 45 -5 96 -13 112 -17 42 -12 255 -9 345 5 41 6
109 12 151 12 96 0 208 20 374 65 191 52 862 268 1000 321 339 131 634 217
787 230 l76 7 27 -53 c21 -42 28 -72 32 -149 5 -77 11 -103 29 -131 25 -37 31
-64 93 -405 47 -254 48 -269 37 -595 -7 -240 -7 -247 18 -360 43 -194 94 -453
99 -502 l5 -48 -52 0 c-28 0 -94 12 -146 27 -52 14 -115 26 -140 27 -38 1 -46
-3 -59 -26 -15 -26 -14 -29 15 -65 32 -39 55 -54 162 -99 53 -23 69 -36 99
-82 38 -57 110 -120 175 -153 43 -22 44 -23 22 -74 -18 -43 -12 -85 16 -110
20 -19 31 -17 94 10 l40 17 -17 -24 c-45 -61 -57 -86 -57 -120 0 -29 6 -41 31
-60 17 -13 45 -38 62 -55 31 -34 55 -40 85 -24 15 8 17 1 17 -62 l0 -72 28 2
c60 4 100 35 135 105 29 56 34 79 39 159 6 108 -10 184 -75 343 l-37 91 1 245
c1 135 7 286 14 335 7 50 15 180 19 290 6 196 5 206 -36 505 -23 168 -53 379
-67 470 -15 91 -29 197 -33 235 l-5 70 29 11 c39 14 43 37 43 230 0 109 5 170
16 211 22 80 30 372 15 498 -15 118 -63 314 -79 324 -7 4 -40 53 -75 108 -59
96 -295 373 -318 373 -5 0 -28 12 -51 26 l-41 26 6 97 c7 111 51 279 97 371
26 51 38 64 83 86 28 15 72 42 96 60 49 38 119 127 126 161 3 13 7 33 10 46 8
43 -14 98 -45 110 l-28 11 5 127 c12 268 -39 365 -260 487 -158 88 -221 107
-357 107 -106 0 -120 -2 -172 -28 -90 -44 -177 -144 -242 -280 -80 -162 -83
-186 -92 -590 l-7 -349 -86 90 c-47 49 -101 97 -120 107 -36 18 -183 31 -498
42 -165 5 -325 -5 -569 -37 -61 -8 -82 -6 -145 11 -61 17 -259 69 -359 95 -14
4 -110 46 -215 94 -239 111 -261 116 -788 206 -135 23 -655 191 -762 247 -17
8 -53 34 -80 56 -26 22 -82 57 -123 78 l-75 38 -161 -1 c-184 0 -268 -14 -301
-50 -12 -13 -27 -24 -34 -24 -24 0 -11 -52 22 -85 26 -26 49 -36 112 -51 44
-10 73 -20 63 -22 -27 -6 -29 -32 -4 -57 21 -20 48 -29 162 -51 14 -2 27 -18
38 -49 24 -61 83 -107 171 -134 78 -23 214 -41 318 -41 87 0 181 -39 487 -199
124 -66 252 -130 285 -144 145 -61 472 -168 553 -181 48 -8 132 -32 187 -54
55 -22 184 -67 287 -100 200 -65 221 -74 255 -104 21 -20 40 -26 173 -57 l75
-18 -85 -26 c-234 -70 -360 -88 -745 -102 l-180 -7 -60 27 c-33 15 -87 40
-120 57 -33 17 -84 39 -113 49 -29 10 -67 30 -83 44 -17 14 -39 25 -49 25 -26
0 -66 18 -360 160 -146 71 -328 155 -405 188 -225 96 -729 260 -761 248 -25
-10 -415 42 -525 69 -53 13 -130 38 -172 54 -41 17 -146 51 -232 76 -148 42
-167 46 -342 55 -216 12 -229 14 -438 85 -203 68 -353 99 -624 130 -400 45
-795 95 -926 116 -282 45 -596 118 -663 153 l-26 14 39 16 c52 22 75 44 75 72
0 31 -38 41 -78 20 -17 -9 -33 -20 -36 -25 -7 -11 -134 16 -154 32 -8 6 -31
46 -53 89 -21 43 -50 85 -64 94 -30 20 -74 12 -76 -14 -3 -34 4 -47 48 -99 25
-29 42 -53 39 -53 -4 0 -28 11 -54 24 -26 13 -58 27 -72 31 -14 3 -47 17 -75
30 -67 30 -208 85 -219 85 -5 0 -23 11 -40 24 -17 13 -55 35 -85 51 -48 24
-93 52 -231 141 -19 13 -80 46 -135 73 -88 44 -107 51 -160 50 -33 0 -71 -5
-85 -10z"/>
</g>
</svg>
